<svg version="1.1" id="Layer_1" xmlns="http://www.w3.org/2000/svg" xmlns:xlink="http://www.w3.org/1999/xlink" x="0px" y="0px"
	 width="100%" viewBox="0 0 723 197" enable-background="new 0 0 723 197" xml:space="preserve">
<path fill="#000000" opacity="1.000000" stroke="none" 
	d="
M517.000000,198.000000 
	C344.713348,198.000000 172.926697,198.000000 1.070025,198.000000 
	C1.070025,132.397919 1.070025,66.795746 1.070025,1.096785 
	C241.999985,1.096785 482.999969,1.096785 723.971802,1.096785 
	C723.971802,66.739922 723.971802,132.369965 723.971802,198.000000 
	C655.129089,198.000000 586.314575,198.000000 517.000000,198.000000 
M102.959755,57.885906 
	C106.362480,95.444115 109.765213,133.002319 113.176857,170.658951 
	C125.962242,174.141159 138.649536,177.624130 151.354706,181.040619 
	C155.267960,182.092926 159.587891,184.483307 163.107773,183.654388 
	C178.286621,180.079910 193.257919,175.607422 208.239304,171.237396 
	C209.713699,170.807327 211.687698,168.942062 211.827988,167.578201 
	C213.089005,155.318085 214.026123,143.023819 214.987961,130.734055 
	C215.719559,121.385765 216.262894,112.022285 217.042831,102.678314 
	C218.341278,87.122620 219.762192,71.577141 221.885117,55.626347 
	C221.885117,52.857491 221.885117,50.088634 221.885117,47.281570 
	C181.770477,47.281570 141.969574,47.281570 101.581451,47.281570 
	C102.040810,50.758411 102.454971,53.893124 102.959755,57.885906 
M303.999451,49.055298 
	C304.000458,51.219849 303.824768,53.401344 304.030487,55.546261 
	C305.645477,72.383736 307.441650,89.204430 308.963654,106.050018 
	C310.114777,118.791206 310.895386,131.565445 311.936462,144.317169 
	C312.524841,151.523605 313.613251,158.703232 313.873749,165.916687 
	C314.007568,169.620682 315.336182,171.148788 318.744171,172.046341 
	C332.309967,175.619141 345.811157,179.436646 359.357544,183.084518 
	C361.220459,183.586166 363.375732,184.277283 365.103149,183.806763 
	C379.894684,179.777756 394.644165,175.585541 409.324493,171.170364 
	C410.823303,170.719589 412.654175,168.598267 412.851196,167.062332 
	C413.833984,159.400238 414.358978,151.677673 414.977081,143.970932 
	C416.340057,126.977089 417.547272,109.969772 419.053131,92.988815 
	C419.732971,85.323021 421.224945,77.728371 421.877899,70.061363 
	C422.359497,64.406799 422.078461,58.687283 422.869904,52.596752 
	C422.869904,50.827137 422.869904,49.057518 422.869904,46.997936 
	C406.849182,46.997936 391.093231,46.997887 375.337250,46.997948 
	C352.586884,46.998035 329.836487,46.982925 307.086304,47.047848 
	C306.054260,47.050793 305.024261,47.776806 303.999451,49.055298 
M622.830688,51.688538 
	C622.830688,50.232815 622.830688,48.777092 622.830688,47.203476 
	C622.014587,47.125263 621.364990,47.008663 620.715332,47.008522 
	C582.569153,47.000240 544.422974,46.992405 506.276855,47.045219 
	C505.103241,47.046844 503.930542,47.688175 502.216644,48.450035 
	C503.143066,54.230652 504.348328,59.983284 504.931915,65.798309 
	C505.857239,75.018631 506.244232,84.291801 507.081604,93.522423 
	C508.282257,106.758194 509.741882,119.970314 510.980988,133.202820 
	C512.070068,144.833847 512.964966,156.483261 514.102783,168.109177 
	C514.184387,168.943069 515.425598,170.075958 516.343567,170.352158 
	C526.198303,173.317368 536.035339,176.376892 546.001465,178.925018 
	C554.431580,181.080383 562.803772,185.350372 571.815796,181.031570 
	C573.087769,180.421982 574.394775,179.818741 575.751221,179.462677 
	C586.264160,176.703079 596.744019,173.787613 607.339905,171.387207 
	C612.049622,170.320267 612.902222,167.471909 613.036499,163.445312 
	C613.234558,157.504929 613.488281,151.553192 614.073730,145.641495 
	C615.612000,130.107956 617.434265,114.602478 618.966064,99.068344 
	C620.112793,87.439606 621.062317,75.789574 621.935303,64.136711 
	C622.235840,60.124519 622.039734,56.075123 622.830688,51.688538 
M560.002380,20.623554 
	C560.002380,26.000505 560.002380,31.377457 560.002380,36.754410 
	C560.168762,36.757790 560.335083,36.761173 560.501465,36.764553 
	C560.501465,29.235748 560.501465,21.706944 560.501465,14.272299 
	C557.377930,14.272299 554.508667,14.272299 551.639404,14.272299 
	C551.637085,14.453443 551.634766,14.634585 551.632507,14.815729 
	C554.229980,14.933225 556.827454,15.050721 559.737183,15.182340 
	C559.831482,16.771893 559.917236,18.216957 560.002380,20.623554 
M382.733856,35.997871 
	C379.489838,36.586716 377.481537,35.530640 376.994263,31.990322 
	C377.110016,33.535149 377.225769,35.079975 377.346161,36.686890 
	C384.184814,36.686890 390.586853,36.686890 396.988892,36.686890 
	C396.989746,36.457054 396.990601,36.227219 396.991455,35.997383 
	C392.553131,35.997383 388.114807,35.997383 382.733856,35.997871 
M377.000702,17.054085 
	C377.104797,18.022644 377.208862,18.991203 377.312927,19.959763 
	C377.617767,19.882294 377.922577,19.804823 378.227386,19.727354 
	C377.842651,18.628113 377.457947,17.528872 377.000702,17.054085 
M385.622131,29.665510 
	C385.880524,29.588776 386.138947,29.512041 386.397339,29.435307 
	C386.117401,29.148903 385.837463,28.862499 385.557556,28.576092 
	C385.474884,28.832882 385.392181,29.089672 385.622131,29.665510 
M178.398407,30.588392 
	C178.047165,30.609554 177.695923,30.630716 177.344681,30.651878 
	C177.417374,30.903404 177.490067,31.154928 177.562744,31.406460 
	C177.806000,31.274290 178.049255,31.142118 178.398407,30.588392 
M390.711395,24.105608 
	C390.454071,23.831404 390.201569,23.551994 389.926727,23.296619 
	C389.911041,23.282051 389.712982,23.463753 389.599792,23.554111 
	C389.869232,23.841379 390.138672,24.128645 390.711395,24.105608 
z"/>
<path fill="#63A814" opacity="1.000000" stroke="none" 
	d="
M622.070496,52.042721 
	C622.039734,56.075123 622.235840,60.124519 621.935303,64.136711 
	C621.062317,75.789574 620.112793,87.439606 618.966064,99.068344 
	C617.434265,114.602478 615.612000,130.107956 614.073730,145.641495 
	C613.488281,151.553192 613.234558,157.504929 613.036499,163.445312 
	C612.902222,167.471909 612.049622,170.320267 607.339905,171.387207 
	C596.744019,173.787613 586.264160,176.703079 575.751221,179.462677 
	C574.394775,179.818741 573.087769,180.421982 571.815796,181.031570 
	C562.803772,185.350372 554.431580,181.080383 546.001465,178.925018 
	C536.035339,176.376892 526.198303,173.317368 516.343567,170.352158 
	C515.425598,170.075958 514.184387,168.943069 514.102783,168.109177 
	C512.964966,156.483261 512.070068,144.833847 510.980988,133.202820 
	C509.741882,119.970314 508.282257,106.758194 507.081604,93.522423 
	C506.244232,84.291801 505.857239,75.018631 504.931915,65.798309 
	C504.348328,59.983284 503.143066,54.230652 502.970978,48.294182 
	C543.083618,48.138325 582.441895,48.138325 621.889465,48.138325 
	C621.963562,49.736225 622.017029,50.889473 622.070496,52.042721 
M563.086914,86.876984 
	C563.086914,86.876984 563.068237,86.946152 563.015991,87.889061 
	C563.025208,105.872658 563.034424,123.856247 562.256531,141.931305 
	C556.864990,140.493317 551.473511,139.055344 546.533875,137.737885 
	C545.954102,134.130722 545.471619,131.129196 545.095703,127.235039 
	C544.483704,126.493271 543.898315,125.136734 543.255371,125.108902 
	C538.879089,124.919426 534.490784,125.009758 529.465271,125.009758 
	C530.068542,128.573563 530.541809,131.369858 531.002563,135.029312 
	C531.346619,138.444382 531.347656,141.945328 532.172668,145.239990 
	C532.616394,147.012161 534.200256,149.420776 535.737671,149.844589 
	C544.428833,152.240417 553.261780,154.121979 562.146973,156.983444 
	C562.603882,161.866272 563.060791,166.749084 563.506775,171.515167 
	C564.117432,171.702728 564.471924,171.947067 564.742615,171.875290 
	C576.589539,168.733932 588.453613,165.650528 600.231567,162.267258 
	C601.422852,161.925049 602.700623,159.834671 602.888245,158.416641 
	C603.561096,153.332855 603.714111,148.183014 604.187622,143.069626 
	C605.423218,129.725266 606.732117,116.387695 607.996948,103.046013 
	C608.949402,92.999901 609.917969,82.955040 610.802185,72.902840 
	C611.256653,67.735313 611.542358,62.552940 611.930542,57.002075 
	C599.732300,57.002075 588.418396,56.951668 577.105408,57.027157 
	C572.648682,57.056892 566.599487,55.709335 564.192810,58.023239 
	C561.851135,60.274666 563.240417,66.407539 562.994873,70.836304 
	C562.976501,71.168686 562.986206,71.502617 562.057007,71.977722 
	C549.828674,71.977722 537.600342,71.977722 524.846680,71.977722 
	C525.339172,77.194801 525.779175,81.855225 526.248596,86.827713 
	C538.584351,86.827713 550.809631,86.827713 563.086914,86.876984 
z"/>
<path fill="#0170BA" opacity="1.000000" stroke="none" 
	d="
M422.137268,52.996708 
	C422.078461,58.687283 422.359497,64.406799 421.877899,70.061363 
	C421.224945,77.728371 419.732971,85.323021 419.053131,92.988815 
	C417.547272,109.969772 416.340057,126.977089 414.977081,143.970932 
	C414.358978,151.677673 413.833984,159.400238 412.851196,167.062332 
	C412.654175,168.598267 410.823303,170.719589 409.324493,171.170364 
	C394.644165,175.585541 379.894684,179.777756 365.103149,183.806763 
	C363.375732,184.277283 361.220459,183.586166 359.357544,183.084518 
	C345.811157,179.436646 332.309967,175.619141 318.744171,172.046341 
	C315.336182,171.148788 314.007568,169.620682 313.873749,165.916687 
	C313.613251,158.703232 312.524841,151.523605 311.936462,144.317169 
	C310.895386,131.565445 310.114777,118.791206 308.963654,106.050018 
	C307.441650,89.204430 305.645477,72.383736 304.030487,55.546261 
	C303.824768,53.401344 304.000458,51.219849 304.459229,48.541428 
	C343.928772,48.027557 382.938538,48.027557 422.137268,48.027557 
	C422.137268,50.018120 422.137268,51.507412 422.137268,52.996708 
M362.042145,102.012947 
	C352.186066,102.007172 342.329681,101.966171 332.474243,102.043587 
	C331.339203,102.052490 330.209320,102.721130 329.015015,103.916222 
	C329.029144,105.585983 329.043304,107.255737 328.907440,109.834343 
	C328.907440,112.425514 328.907440,115.016685 328.907440,118.138573 
	C340.801880,118.138573 351.896454,118.138573 363.011444,119.058281 
	C363.026642,126.649178 363.041809,134.240082 362.248566,141.960693 
	C356.903778,140.593613 351.558990,139.226532 346.393402,137.905273 
	C345.779572,133.440338 345.225372,129.409180 344.664612,125.330338 
	C339.711487,125.330338 334.993469,125.330338 330.438141,125.330338 
	C331.066101,133.656982 331.670807,141.675110 332.242126,149.250656 
	C342.753601,152.291046 352.896240,155.224777 363.012360,159.070679 
	C363.012360,163.606888 363.012360,168.143097 363.012360,173.288208 
	C376.006256,169.712555 387.985992,166.544312 399.846710,162.979889 
	C401.234314,162.562866 402.680389,160.044922 402.879608,158.356995 
	C403.867920,149.983200 404.421417,141.558792 405.176025,133.156540 
	C406.432861,119.162415 407.738342,105.172668 408.999573,91.178940 
	C409.757080,82.774071 410.454590,74.363808 411.210938,65.958832 
	C411.456573,63.229225 411.803131,60.508698 412.137024,57.480202 
	C395.405945,57.480202 379.409363,57.480202 362.953796,57.480202 
	C362.953796,62.535427 362.953796,67.170364 362.035431,71.963699 
	C351.404114,71.975121 340.772430,71.951447 330.141968,72.052704 
	C329.088470,72.062737 328.042267,72.835693 327.022125,74.142555 
	C327.054535,77.749466 327.086945,81.356369 326.979065,85.829201 
	C328.278778,86.548607 329.566010,87.865677 330.880127,87.893028 
	C341.568787,88.115509 352.262421,88.096642 362.985352,89.061203 
	C362.981628,93.376129 362.977905,97.691055 362.042145,102.012947 
z"/>
<path fill="#E44E27" opacity="1.000000" stroke="none" 
	d="
M221.131546,56.027359 
	C219.762192,71.577141 218.341278,87.122620 217.042831,102.678314 
	C216.262894,112.022285 215.719559,121.385765 214.987961,130.734055 
	C214.026123,143.023819 213.089005,155.318085 211.827988,167.578201 
	C211.687698,168.942062 209.713699,170.807327 208.239304,171.237396 
	C193.257919,175.607422 178.286621,180.079910 163.107773,183.654388 
	C159.587891,184.483307 155.267960,182.092926 151.354706,181.040619 
	C138.649536,177.624130 125.962242,174.141159 113.176857,170.658951 
	C109.765213,133.002319 106.362480,95.444115 102.990173,57.001472 
	C103.020584,53.516735 103.020584,50.916431 103.020584,48.296249 
	C142.632492,48.296249 181.691452,48.296249 221.131546,48.296249 
	C221.131546,51.076931 221.131546,53.552143 221.131546,56.027359 
M124.385300,73.054543 
	C124.856796,74.248825 125.328285,75.443108 125.989578,77.587692 
	C126.649925,87.989014 127.310280,98.390327 127.862526,109.727264 
	C128.006149,112.439606 128.149780,115.151939 128.309250,118.163498 
	C139.929749,118.163498 150.959061,118.163498 161.997406,119.080223 
	C161.998611,124.962448 162.147186,130.850616 161.910080,136.723221 
	C161.840088,138.457108 160.680832,140.146988 159.228851,141.948929 
	C155.475433,140.966675 151.722748,139.981537 147.968323,139.003159 
	C145.386200,138.330246 143.595749,137.673859 144.774170,134.037827 
	C146.138535,129.828156 143.998566,126.224754 140.770081,126.047554 
	C137.331314,125.858810 133.874161,126.005074 129.837006,126.005074 
	C130.614731,134.283295 131.342361,142.028061 132.045181,149.508987 
	C134.668579,150.228867 136.795441,150.852814 138.943039,151.394547 
	C146.629913,153.333572 154.323792,155.244751 162.005859,158.078659 
	C162.005859,162.947708 162.005859,167.816742 162.005859,173.380035 
	C172.691940,170.379440 182.198914,167.580978 191.778305,165.057404 
	C200.838928,162.670502 201.019989,162.813766 202.019928,153.776352 
	C203.781693,137.853760 205.417450,121.916214 206.966919,105.971405 
	C208.389236,91.335068 209.597290,76.678001 210.971283,62.036789 
	C211.287415,58.668213 210.712204,56.811565 206.575989,56.921303 
	C196.428879,57.190514 186.269409,56.954357 176.115784,57.033947 
	C171.662964,57.068848 165.624390,55.722588 163.213760,58.034950 
	C160.871506,60.281704 162.249878,66.408203 161.998123,70.831223 
	C161.979218,71.163239 161.989853,71.496933 161.059189,71.961395 
	C150.490463,71.970467 139.921341,71.937737 129.353470,72.036980 
	C127.890923,72.050713 126.434502,72.717041 124.989265,72.987900 
	C124.989265,72.987900 125.083221,72.997093 124.385300,73.054543 
z"/>
<path fill="#F7EEEA" opacity="1.000000" stroke="none" 
	d="
M221.508331,55.826851 
	C221.131546,53.552143 221.131546,51.076931 221.131546,48.296249 
	C181.691452,48.296249 142.632492,48.296249 103.020584,48.296249 
	C103.020584,50.916431 103.020584,53.516735 102.944855,56.572437 
	C102.454971,53.893124 102.040810,50.758411 101.581451,47.281570 
	C141.969574,47.281570 181.770477,47.281570 221.885117,47.281570 
	C221.885117,50.088634 221.885117,52.857491 221.508331,55.826851 
z"/>
<path fill="#E2ECF6" opacity="1.000000" stroke="none" 
	d="
M422.503601,52.796730 
	C422.137268,51.507412 422.137268,50.018120 422.137268,48.027557 
	C382.938538,48.027557 343.928772,48.027557 304.456177,48.096794 
	C305.024261,47.776806 306.054260,47.050793 307.086304,47.047848 
	C329.836487,46.982925 352.586884,46.998035 375.337250,46.997948 
	C391.093231,46.997887 406.849182,46.997936 422.869904,46.997936 
	C422.869904,49.057518 422.869904,50.827137 422.503601,52.796730 
z"/>
<path fill="#CEE4AF" opacity="1.000000" stroke="none" 
	d="
M622.450562,51.865631 
	C622.017029,50.889473 621.963562,49.736225 621.889465,48.138325 
	C582.441895,48.138325 543.083618,48.138325 503.241364,48.084793 
	C503.930542,47.688175 505.103241,47.046844 506.276855,47.045219 
	C544.422974,46.992405 582.569153,47.000240 620.715332,47.008522 
	C621.364990,47.008663 622.014587,47.125263 622.830688,47.203476 
	C622.830688,48.777092 622.830688,50.232815 622.450562,51.865631 
z"/>
<path fill="#7F9B83" opacity="1.000000" stroke="none" 
	d="
M560.002686,20.142788 
	C559.917236,18.216957 559.831482,16.771893 559.737183,15.182340 
	C556.827454,15.050721 554.229980,14.933225 551.632507,14.815729 
	C551.634766,14.634585 551.637085,14.453443 551.639404,14.272299 
	C554.508667,14.272299 557.377930,14.272299 560.501465,14.272299 
	C560.501465,21.706944 560.501465,29.235748 560.501465,36.764553 
	C560.335083,36.761173 560.168762,36.757790 560.002380,36.754410 
	C560.002380,31.377457 560.002380,26.000505 560.002686,20.142788 
z"/>
<path fill="#47483A" opacity="1.000000" stroke="none" 
	d="
M383.205170,35.997627 
	C388.114807,35.997383 392.553131,35.997383 396.991455,35.997383 
	C396.990601,36.227219 396.989746,36.457054 396.988892,36.686890 
	C390.586853,36.686890 384.184814,36.686890 377.346161,36.686890 
	C377.225769,35.079975 377.110016,33.535149 376.994263,31.990322 
	C377.481537,35.530640 379.489838,36.586716 383.205170,35.997627 
z"/>
<path fill="#030302" opacity="1.000000" stroke="none" 
	d="
M377.036987,16.741858 
	C377.457947,17.528872 377.842651,18.628113 378.227386,19.727354 
	C377.922577,19.804823 377.617767,19.882294 377.312927,19.959763 
	C377.208862,18.991203 377.104797,18.022644 377.036987,16.741858 
z"/>
<path fill="#030302" opacity="1.000000" stroke="none" 
	d="
M385.465820,29.505985 
	C385.392181,29.089672 385.474884,28.832882 385.557556,28.576094 
	C385.837463,28.862499 386.117401,29.148903 386.397339,29.435307 
	C386.138947,29.512041 385.880524,29.588776 385.465820,29.505985 
z"/>
<path fill="#020202" opacity="1.000000" stroke="none" 
	d="
M178.345459,30.799171 
	C178.049255,31.142118 177.806000,31.274290 177.562744,31.406456 
	C177.490067,31.154928 177.417374,30.903404 177.344681,30.651878 
	C177.695923,30.630716 178.047165,30.609554 178.345459,30.799171 
z"/>
<path fill="#030302" opacity="1.000000" stroke="none" 
	d="
M390.559753,24.260759 
	C390.138672,24.128645 389.869232,23.841379 389.599792,23.554115 
	C389.712982,23.463753 389.911041,23.282051 389.926727,23.296619 
	C390.201569,23.551994 390.454071,23.831404 390.559753,24.260759 
z"/>
<path fill="#000000" opacity="1.000000" stroke="none" 
	d="
M544.989197,128.127670 
	C545.471619,131.129196 545.954102,134.130722 546.533875,137.737885 
	C551.473511,139.055344 556.864990,140.493317 563.034668,141.942017 
	C568.145935,140.659698 572.526855,139.501297 576.782654,137.990448 
	C578.034302,137.546097 579.667969,136.227173 579.858215,135.095825 
	C580.534546,131.073242 580.605042,126.952774 581.014526,122.880394 
	C581.569641,117.358620 582.321655,111.855545 582.813232,106.328781 
	C583.373779,100.027184 583.740784,93.708366 584.224182,86.946152 
	C576.615662,86.946152 569.841919,86.946152 563.068237,86.946152 
	C563.068237,86.946152 563.086914,86.876984 562.829102,86.490921 
	C552.584167,86.069893 542.596802,86.050652 532.609802,85.991989 
	C528.793579,85.969574 526.869263,82.790115 526.972839,77.227310 
	C527.044128,73.394814 529.213013,72.932159 532.433716,72.946564 
	C554.908630,73.047058 577.384216,72.998886 599.917603,73.449844 
	C599.255981,83.752151 598.660645,93.613976 597.787659,103.451172 
	C596.456299,118.452484 594.933044,133.436752 593.432312,149.041656 
	C583.207336,151.366791 572.626831,153.772766 562.046387,156.178741 
	C553.261780,154.121979 544.428833,152.240417 535.737671,149.844589 
	C534.200256,149.420776 532.616394,147.012161 532.172668,145.239990 
	C531.347656,141.945328 531.346619,138.444382 531.382080,134.392273 
	C532.423767,131.207916 532.972717,126.520706 533.767517,126.478630 
	C537.478882,126.282188 541.846619,124.083412 544.989197,128.127670 
z"/>
<path fill="#8ACF18" opacity="1.000000" stroke="none" 
	d="
M562.096680,156.581085 
	C572.626831,153.772766 583.207336,151.366791 593.432312,149.041656 
	C594.933044,133.436752 596.456299,118.452484 597.787659,103.451172 
	C598.660645,93.613976 599.255981,83.752151 599.756287,73.053284 
	C587.352173,72.082085 575.167480,71.958961 562.982788,71.835831 
	C562.986206,71.502617 562.976501,71.168686 562.994873,70.836304 
	C563.240417,66.407539 561.851135,60.274666 564.192810,58.023239 
	C566.599487,55.709335 572.648682,57.056892 577.105408,57.027157 
	C588.418396,56.951668 599.732300,57.002075 611.930542,57.002075 
	C611.542358,62.552940 611.256653,67.735313 610.802185,72.902840 
	C609.917969,82.955040 608.949402,92.999901 607.996948,103.046013 
	C606.732117,116.387695 605.423218,129.725266 604.187622,143.069626 
	C603.714111,148.183014 603.561096,153.332855 602.888245,158.416641 
	C602.700623,159.834671 601.422852,161.925049 600.231567,162.267258 
	C588.453613,165.650528 576.589539,168.733932 564.742615,171.875290 
	C564.471924,171.947067 564.117432,171.702728 563.506775,171.515167 
	C563.060791,166.749084 562.603882,161.866272 562.096680,156.581085 
z"/>
<path fill="#8ACF17" opacity="1.000000" stroke="none" 
	d="
M563.042114,87.417603 
	C569.841919,86.946152 576.615662,86.946152 584.224182,86.946152 
	C583.740784,93.708366 583.373779,100.027184 582.813232,106.328781 
	C582.321655,111.855545 581.569641,117.358620 581.014526,122.880394 
	C580.605042,126.952774 580.534546,131.073242 579.858215,135.095825 
	C579.667969,136.227173 578.034302,137.546097 576.782654,137.990448 
	C572.526855,139.501297 568.145935,140.659698 563.428223,141.896271 
	C563.034424,123.856247 563.025208,105.872658 563.042114,87.417603 
z"/>
<path fill="#FFFFFF" opacity="1.000000" stroke="none" 
	d="
M562.519897,71.906784 
	C575.167480,71.958961 587.352173,72.082085 599.698242,72.601776 
	C577.384216,72.998886 554.908630,73.047058 532.433716,72.946564 
	C529.213013,72.932159 527.044128,73.394814 526.972839,77.227310 
	C526.869263,82.790115 528.793579,85.969574 532.609802,85.991989 
	C542.596802,86.050652 552.584167,86.069893 562.803101,86.466278 
	C550.809631,86.827713 538.584351,86.827713 526.248596,86.827713 
	C525.779175,81.855225 525.339172,77.194801 524.846680,71.977722 
	C537.600342,71.977722 549.828674,71.977722 562.519897,71.906784 
z"/>
<path fill="#FCFDFB" opacity="1.000000" stroke="none" 
	d="
M545.042480,127.681351 
	C541.846619,124.083412 537.478882,126.282188 533.767517,126.478630 
	C532.972717,126.520706 532.423767,131.207916 531.388306,133.960693 
	C530.541809,131.369858 530.068542,128.573563 529.465271,125.009758 
	C534.490784,125.009758 538.879089,124.919426 543.255371,125.108902 
	C543.898315,125.136734 544.483704,126.493271 545.042480,127.681351 
z"/>
<path fill="#000000" opacity="1.000000" stroke="none" 
	d="
M363.038910,158.158493 
	C352.896240,155.224777 342.753601,152.291046 332.242126,149.250656 
	C331.670807,141.675110 331.066101,133.656982 330.438141,125.330338 
	C334.993469,125.330338 339.711487,125.330338 344.664612,125.330338 
	C345.225372,129.409180 345.779572,133.440338 346.393402,137.905273 
	C351.558990,139.226532 356.903778,140.593613 363.043213,141.949799 
	C367.593506,140.958755 371.371094,140.053314 375.094208,138.962143 
	C376.616364,138.516052 379.187744,137.814804 379.292847,136.979477 
	C380.084625,130.684418 380.380798,124.327026 380.718567,117.566513 
	C363.752441,117.143906 346.899536,117.143906 330.599548,117.143906 
	C329.984283,113.864952 329.520874,111.395226 329.057434,108.925499 
	C329.043304,107.255737 329.029144,105.585983 329.508972,103.465073 
	C340.996735,102.952263 351.990540,102.890610 363.448547,102.902725 
	C369.185211,102.984566 374.471191,103.202995 379.721130,102.863670 
	C381.166260,102.770256 383.559265,101.139961 383.699036,99.993256 
	C384.180939,96.039276 383.859131,91.987335 383.721619,87.553482 
	C366.364532,87.092369 349.128693,87.103920 331.894989,86.920029 
	C330.296356,86.902969 328.710907,85.645042 327.119354,84.963272 
	C327.086945,81.356369 327.054535,77.749466 327.471649,73.589066 
	C339.623474,72.968536 351.325775,72.901497 363.489441,72.911453 
	C375.713409,72.957130 387.476044,72.925819 399.321838,72.963982 
	C399.405029,73.033463 399.603577,72.946426 399.755493,73.302277 
	C399.991699,74.423500 400.075928,75.188881 400.093842,76.389557 
	C398.696869,89.325645 397.223755,101.813438 396.080933,114.331390 
	C395.175385,124.250427 394.622375,134.203293 394.024902,144.147873 
	C393.832550,147.350143 393.430573,149.295502 389.340485,150.232330 
	C380.435303,152.272003 371.790283,155.447327 363.038910,158.158493 
z"/>
<path fill="#29A7DF" opacity="1.000000" stroke="none" 
	d="
M363.025635,158.614594 
	C371.790283,155.447327 380.435303,152.272003 389.340485,150.232330 
	C393.430573,149.295502 393.832550,147.350143 394.024902,144.147873 
	C394.622375,134.203293 395.175385,124.250427 396.080933,114.331390 
	C397.223755,101.813438 398.696869,89.325645 400.360931,76.168289 
	C400.330780,74.656639 399.967194,73.801529 399.603577,72.946426 
	C399.603577,72.946426 399.405029,73.033463 398.980591,72.683319 
	C386.721222,72.288498 374.886261,72.243828 363.027832,72.100479 
	C363.004395,72.001785 362.953796,71.805305 362.953796,71.805305 
	C362.953796,67.170364 362.953796,62.535427 362.953796,57.480202 
	C379.409363,57.480202 395.405945,57.480202 412.137024,57.480202 
	C411.803131,60.508698 411.456573,63.229225 411.210938,65.958832 
	C410.454590,74.363808 409.757080,82.774071 408.999573,91.178940 
	C407.738342,105.172668 406.432861,119.162415 405.176025,133.156540 
	C404.421417,141.558792 403.867920,149.983200 402.879608,158.356995 
	C402.680389,160.044922 401.234314,162.562866 399.846710,162.979889 
	C387.985992,166.544312 376.006256,169.712555 363.012360,173.288208 
	C363.012360,168.143097 363.012360,163.606888 363.025635,158.614594 
z"/>
<path fill="#29A8E0" opacity="1.000000" stroke="none" 
	d="
M380.831848,117.989113 
	C380.380798,124.327026 380.084625,130.684418 379.292847,136.979477 
	C379.187744,137.814804 376.616364,138.516052 375.094208,138.962143 
	C371.371094,140.053314 367.593506,140.958755 363.447418,141.884949 
	C363.041809,134.240082 363.026642,126.649178 363.464172,118.534035 
	C369.555206,118.002892 375.193542,117.996002 380.831848,117.989113 
z"/>
<path fill="#29A7E0" opacity="1.000000" stroke="none" 
	d="
M383.843445,87.972702 
	C383.859131,91.987335 384.180939,96.039276 383.699036,99.993256 
	C383.559265,101.139961 381.166260,102.770256 379.721130,102.863670 
	C374.471191,103.202995 369.185211,102.984566 363.445862,102.696976 
	C362.978943,102.417473 362.974182,102.005981 362.974182,102.005981 
	C362.977905,97.691055 362.981628,93.376129 363.438599,88.551361 
	C370.542389,88.018585 377.192902,87.995644 383.843445,87.972702 
z"/>
<path fill="#FDFEFE" opacity="1.000000" stroke="none" 
	d="
M380.718567,117.566513 
	C375.193542,117.996002 369.555206,118.002892 363.453979,118.074181 
	C351.896454,118.138573 340.801880,118.138573 328.907440,118.138573 
	C328.907440,115.016685 328.907440,112.425514 328.982422,109.379921 
	C329.520874,111.395226 329.984283,113.864952 330.599548,117.143906 
	C346.899536,117.143906 363.752441,117.143906 380.718567,117.566513 
z"/>
<path fill="#EBF6F8" opacity="1.000000" stroke="none" 
	d="
M383.721619,87.553482 
	C377.192902,87.995644 370.542389,88.018585 363.423218,88.096390 
	C352.262421,88.096642 341.568787,88.115509 330.880127,87.893028 
	C329.566010,87.865677 328.278778,86.548607 327.049194,85.396240 
	C328.710907,85.645042 330.296356,86.902969 331.894989,86.920029 
	C349.128693,87.103920 366.364532,87.092369 383.721619,87.553482 
z"/>
<path fill="#6BABD4" opacity="1.000000" stroke="none" 
	d="
M363.028076,72.834457 
	C351.325775,72.901497 339.623474,72.968536 327.456909,73.145065 
	C328.042267,72.835693 329.088470,72.062737 330.141968,72.052704 
	C340.772430,71.951447 351.404114,71.975121 362.494629,71.884506 
	C362.953796,71.805305 363.004395,72.001785 363.017151,72.258759 
	C363.029907,72.515732 363.028076,72.834457 363.028076,72.834457 
z"/>
<path fill="#69AAD4" opacity="1.000000" stroke="none" 
	d="
M362.508179,102.009460 
	C362.974182,102.005981 362.978943,102.417473 362.981628,102.623215 
	C351.990540,102.890610 340.996735,102.952263 329.540009,103.048904 
	C330.209320,102.721130 331.339203,102.052490 332.474243,102.043587 
	C342.329681,101.966171 352.186066,102.007172 362.508179,102.009460 
z"/>
<path fill="#000000" opacity="1.000000" stroke="none" 
	d="
M162.015015,157.166443 
	C154.323792,155.244751 146.629913,153.333572 138.943039,151.394547 
	C136.795441,150.852814 134.668579,150.228867 132.045181,149.508987 
	C131.342361,142.028061 130.614731,134.283295 129.837006,126.005074 
	C133.874161,126.005074 137.331314,125.858810 140.770081,126.047554 
	C143.998566,126.224754 146.138535,129.828156 144.774170,134.037827 
	C143.595749,137.673859 145.386200,138.330246 147.968323,139.003159 
	C151.722748,139.981537 155.475433,140.966675 159.941238,142.063019 
	C166.092636,140.956726 171.557693,139.835083 176.944199,138.415497 
	C177.808167,138.187790 178.609161,136.716415 178.930817,135.664490 
	C179.449417,133.968552 179.729645,132.148788 179.782394,130.371582 
	C179.904831,126.247177 179.831131,122.116959 179.721466,117.567062 
	C162.750381,117.145035 145.894775,117.145035 129.683182,117.145035 
	C128.983627,113.732803 128.477127,111.262222 127.970627,108.791649 
	C127.310280,98.390327 126.649925,87.989014 125.919739,76.794411 
	C125.594345,74.999786 125.338783,73.998436 125.083221,72.997093 
	C125.083221,72.997093 124.989265,72.987900 125.452202,72.999565 
	C150.230179,73.009956 174.545227,73.008682 198.910217,73.452118 
	C198.631607,78.219063 198.303009,82.541290 197.511597,86.923752 
	C179.863922,86.992722 162.678940,86.978256 145.494370,87.052391 
	C144.051849,87.058609 142.611877,87.660202 141.092651,88.350700 
	C141.283737,93.549690 141.552902,98.383171 141.883530,104.320541 
	C148.520432,103.926025 155.280258,103.524208 162.503372,103.069717 
	C172.516953,103.011734 182.067596,102.964417 191.617172,103.044197 
	C193.135544,103.056877 194.649139,103.641090 196.094849,104.400482 
	C195.022018,118.568924 194.120987,132.307297 192.862686,146.012848 
	C192.733719,147.417664 190.681717,149.354736 189.155746,149.805923 
	C180.169037,152.463028 171.073730,154.752884 162.015015,157.166443 
z"/>
<path fill="#F16529" opacity="1.000000" stroke="none" 
	d="
M197.974426,86.863525 
	C198.303009,82.541290 198.631607,78.219063 198.728531,73.070358 
	C186.326828,72.105881 174.156799,71.967857 161.986755,71.829842 
	C161.989853,71.496933 161.979218,71.163239 161.998123,70.831223 
	C162.249878,66.408203 160.871506,60.281704 163.213760,58.034950 
	C165.624390,55.722588 171.662964,57.068848 176.115784,57.033947 
	C186.269409,56.954357 196.428879,57.190514 206.575989,56.921303 
	C210.712204,56.811565 211.287415,58.668213 210.971283,62.036789 
	C209.597290,76.678001 208.389236,91.335068 206.966919,105.971405 
	C205.417450,121.916214 203.781693,137.853760 202.019928,153.776352 
	C201.019989,162.813766 200.838928,162.670502 191.778305,165.057404 
	C182.198914,167.580978 172.691940,170.379440 162.005859,173.380035 
	C162.005859,167.816742 162.005859,162.947708 162.010437,157.622559 
	C171.073730,154.752884 180.169037,152.463028 189.155746,149.805923 
	C190.681717,149.354736 192.733719,147.417664 192.862686,146.012848 
	C194.120987,132.307297 195.022018,118.568924 196.299377,104.127014 
	C195.215576,102.942574 193.861526,102.077316 192.498062,102.062248 
	C182.336777,101.949890 172.173630,102.005974 162.008118,101.545303 
	C162.000458,96.774811 161.995743,92.468239 162.456329,88.097397 
	C173.164993,88.023872 183.408783,88.059097 193.651154,87.954773 
	C195.095795,87.940071 196.533508,87.244141 197.974426,86.863525 
z"/>
<path fill="#F1662A" opacity="1.000000" stroke="none" 
	d="
M179.836945,117.989098 
	C179.831131,122.116959 179.904831,126.247177 179.782394,130.371582 
	C179.729645,132.148788 179.449417,133.968552 178.930817,135.664490 
	C178.609161,136.716415 177.808167,138.187790 176.944199,138.415497 
	C171.557693,139.835083 166.092636,140.956726 160.337173,142.017075 
	C160.680832,140.146988 161.840088,138.457108 161.910080,136.723221 
	C162.147186,130.850616 161.998611,124.962448 162.456863,118.552193 
	C168.556534,118.012474 174.196732,118.000786 179.836945,117.989098 
z"/>
<path fill="#F5DAD0" opacity="1.000000" stroke="none" 
	d="
M161.522980,71.895615 
	C174.156799,71.967857 186.326828,72.105881 198.678558,72.625648 
	C174.545227,73.008682 150.230179,73.009956 125.445190,73.046249 
	C126.434502,72.717041 127.890923,72.050713 129.353470,72.036980 
	C139.921341,71.937737 150.490463,71.970467 161.522980,71.895615 
z"/>
<path fill="#FFFEFE" opacity="1.000000" stroke="none" 
	d="
M179.721466,117.567062 
	C174.196732,118.000786 168.556534,118.012474 162.452347,118.093826 
	C150.959061,118.163498 139.929749,118.163498 128.309250,118.163498 
	C128.149780,115.151939 128.006149,112.439606 127.916580,109.259460 
	C128.477127,111.262222 128.983627,113.732803 129.683182,117.145035 
	C145.894775,117.145035 162.750381,117.145035 179.721466,117.567062 
z"/>
<path fill="#F5DAD0" opacity="1.000000" stroke="none" 
	d="
M124.734261,73.025818 
	C125.338783,73.998436 125.594345,74.999786 125.824844,76.319260 
	C125.328285,75.443108 124.856796,74.248825 124.734261,73.025818 
z"/>
<path fill="#8DD0EF" opacity="1.000000" stroke="none" 
	d="
M363.489441,72.911453 
	C363.028076,72.834457 363.029907,72.515732 363.040588,72.357452 
	C374.886261,72.243828 386.721222,72.288498 398.897400,72.613831 
	C387.476044,72.925819 375.713409,72.957130 363.489441,72.911453 
z"/>
<path fill="#8DD0EF" opacity="1.000000" stroke="none" 
	d="
M399.755493,73.302269 
	C399.967194,73.801529 400.330780,74.656639 400.427277,75.733002 
	C400.075928,75.188881 399.991699,74.423500 399.755493,73.302269 
z"/>
<path fill="#E54F27" opacity="1.000000" stroke="none" 
	d="
M161.991028,88.161674 
	C161.995743,92.468239 162.000458,96.774811 162.012573,101.823608 
	C162.026657,102.751350 162.033371,102.936867 162.040085,103.122391 
	C155.280258,103.524208 148.520432,103.926025 141.883530,104.320541 
	C141.552902,98.383171 141.283737,93.549690 141.549164,88.349792 
	C148.719498,88.042816 155.355255,88.102242 161.991028,88.161674 
z"/>
<path fill="#FBEEEE" opacity="1.000000" stroke="none" 
	d="
M162.456329,88.097397 
	C155.355255,88.102242 148.719498,88.042816 141.627228,87.984283 
	C142.611877,87.660202 144.051849,87.058609 145.494370,87.052391 
	C162.678940,86.978256 179.863922,86.992722 197.511597,86.923744 
	C196.533508,87.244141 195.095795,87.940071 193.651154,87.954773 
	C183.408783,88.059097 173.164993,88.023872 162.456329,88.097397 
z"/>
<path fill="#F27037" opacity="1.000000" stroke="none" 
	d="
M162.503372,103.069710 
	C162.033371,102.936867 162.026657,102.751350 162.015503,102.287537 
	C172.173630,102.005974 182.336777,101.949890 192.498062,102.062248 
	C193.861526,102.077316 195.215576,102.942574 196.369461,103.687592 
	C194.649139,103.641090 193.135544,103.056877 191.617172,103.044197 
	C182.067596,102.964417 172.516953,103.011734 162.503372,103.069710 
z"/>
</svg>